<svg aria-hidden="true" style="position: absolute; width: 0; height: 0; overflow: hidden;" version="1.1" xmlns="http://www.w3.org/2000/svg" xmlns:xlink="http://www.w3.org/1999/xlink">
<defs>
<symbol id="icon-Vector-10" viewBox="0 0 11 32">
<path d="M10.112 9.383l-8.055-8.099c-0.817-0.822-1.926-1.284-3.083-1.284h-6.995c-1.158-0.001-2.269 0.461-3.088 1.284l-4.028 4.050-4.039 4.050c-0.818 0.823-1.276 1.939-1.275 3.102v7.030c-0.001 1.163 0.457 2.279 1.275 3.102l8.057 8.099c0.818 0.822 1.927 1.284 3.084 1.284h6.995c1.159 0.002 2.271-0.46 3.091-1.284l8.065-8.099c0.817-0.823 1.275-1.939 1.274-3.102v-7.030c0.001-1.163-0.459-2.279-1.277-3.102z"></path>
</symbol>
<symbol id="icon-linkedIn" viewBox="0 0 32 32">
<path d="M3.034 0.889c-1.185 0-2.145 0.96-2.145 2.145v25.932c0 1.185 0.96 2.145 2.145 2.145h25.932c1.185 0 2.145-0.961 2.145-2.145v-25.932c0-1.185-0.96-2.145-2.145-2.145h-25.932zM7.672 10.274c-1.448 0-2.622-1.174-2.622-2.622s1.174-2.622 2.622-2.622c1.448 0 2.622 1.174 2.622 2.622s-1.174 2.622-2.622 2.622zM12.695 12.212h4.345v1.991c0 0 1.179-2.358 4.387-2.358 2.862 0 5.233 1.41 5.233 5.707v9.062h-4.503v-7.964c0-2.535-1.353-2.814-2.385-2.814-2.14 0-2.507 1.846-2.507 3.145v7.633h-4.571v-14.401zM9.958 12.212v14.401h-4.571v-14.401h4.571z"></path>
</symbol>
<symbol id="icon-next" viewBox="0 0 38 32">
<path d="M23.36 2.24l12.16 12.16h-35.52v3.2h35.52l-12.16 12.16 2.24 2.24 11.84-11.84c0.64-0.64 0.96-1.44 0.96-2.24v-3.68c0-0.8-0.32-1.6-0.96-2.24l-11.84-12-2.24 2.24z"></path>
</symbol>
<symbol id="icon-plus" viewBox="0 0 34 32">
<path d="M32.678 17.822v-4.472h-13.35v-13.35h-4.472v13.35h-13.35v4.472h13.35v13.35h4.472v-13.35h13.35z"></path>
</symbol>
<symbol id="icon-ok" viewBox="0 0 32 32">
<path d="M0 19.778l4.608 12.222h11.498l15.894-32h-5.816l-15.828 31.744-4.54-11.966h-5.816z"></path>
</symbol>
<symbol id="icon-twitter" viewBox="0 0 36 32">
<path d="M31.571 7.697c0.013 0.328 0.017 0.659 0.017 0.986 0 9.98-7.021 21.504-19.859 21.504-3.945 0-7.612-1.257-10.701-3.398 0.546 0.060 1.099 0.105 1.664 0.105 3.27 0 6.281-1.212 8.67-3.249-3.055-0.041-5.634-2.244-6.524-5.237 0.395 0.087 0.85 0.137 1.315 0.137 0.656 0 1.289-0.099 1.885-0.283l-0.045 0.012c-3.192-0.689-5.6-3.74-5.6-7.407v-0.090c0.941 0.553 2.020 0.898 3.164 0.943-1.875-1.361-3.108-3.682-3.108-6.3 0-1.376 0.343-2.679 0.947-3.8 3.441 4.58 8.587 7.586 14.389 7.9-0.115-0.515-0.181-1.107-0.181-1.714 0-0.002 0-0.004 0-0.007v0c0-4.175 3.125-7.556 6.982-7.556 2.007 0 3.821 0.913 5.092 2.379 1.68-0.359 3.166-0.992 4.487-1.857l-0.050 0.031c-0.523 1.766-1.628 3.247-3.072 4.175 1.491-0.194 2.844-0.609 4.087-1.216l-0.077 0.034c-0.948 1.525-2.106 2.817-3.451 3.882l-0.031 0.024z"></path>
</symbol>
<symbol id="icon-facebook" viewBox="0 0 32 32">
<path d="M0 16c0 7.911 5.778 14.489 13.333 15.822l0.089-0.071c-0.131-0.023-0.161-0.029-0.191-0.036l0.102 0.018v-11.289h-4v-4.444h4v-3.556c0-4 2.578-6.222 6.222-6.222 1.156 0 2.4 0.178 3.556 0.356v4.089h-2.044c-1.956 0-2.4 0.978-2.4 2.222v3.111h4.267l-0.711 4.444h-3.556v11.289l-0.089 0.018 0.089 0.071c7.556-1.333 13.333-7.911 13.333-15.822 0-8.8-7.2-16-16-16s-16 7.2-16 16z"></path>
</symbol>
<symbol id="icon-instagram" viewBox="0 0 32 32">
<path d="M16 0.485c-4.213 0-4.741 0.018-6.396 0.094-1.653 0.075-2.779 0.338-3.765 0.72-1.076 0.411-1.992 1.019-2.747 1.787l-0.001 0.001c-0.77 0.756-1.38 1.673-1.774 2.696l-0.018 0.052c-0.386 0.987-0.647 2.116-0.722 3.767-0.073 1.653-0.091 2.183-0.091 6.396s0.018 4.741 0.092 6.396c0.076 1.652 0.338 2.779 0.722 3.765 0.396 1.020 0.926 1.886 1.788 2.748s1.728 1.394 2.748 1.79c0.987 0.384 2.116 0.645 3.765 0.722 1.655 0.075 2.183 0.092 6.396 0.092s4.741-0.018 6.396-0.092c1.652-0.076 2.78-0.338 3.769-0.722 1.074-0.412 1.99-1.020 2.744-1.789l0.001-0.001c0.769-0.756 1.378-1.673 1.773-2.696l0.018-0.052c0.382-0.987 0.644-2.116 0.722-3.765 0.073-1.653 0.092-2.183 0.092-6.396s-0.018-4.741-0.092-6.396c-0.078-1.653-0.34-2.78-0.722-3.765-0.412-1.076-1.021-1.994-1.789-2.749l-0.001-0.001c-0.755-0.769-1.672-1.378-2.695-1.771l-0.052-0.018c-0.99-0.384-2.117-0.645-3.769-0.72-1.655-0.076-2.183-0.094-6.396-0.094h0.004zM14.608 3.282h1.392c4.142 0 4.635 0.014 6.27 0.089 1.511 0.069 2.334 0.322 2.88 0.533 0.724 0.283 1.241 0.619 1.783 1.161 0.542 0.544 0.88 1.061 1.161 1.785 0.213 0.546 0.466 1.367 0.533 2.88 0.075 1.636 0.091 2.126 0.091 6.267 0 4.142-0.016 4.633-0.089 6.268-0.071 1.511-0.322 2.332-0.535 2.88-0.263 0.699-0.658 1.294-1.16 1.78l-0.001 0.001c-0.488 0.503-1.084 0.898-1.75 1.15l-0.033 0.011c-0.546 0.213-1.369 0.466-2.88 0.533-1.636 0.076-2.128 0.092-6.27 0.092s-4.633-0.018-6.268-0.091c-1.513-0.071-2.334-0.324-2.88-0.535-0.7-0.263-1.296-0.658-1.784-1.16l-0.001-0.001c-0.503-0.488-0.898-1.084-1.15-1.75l-0.011-0.033c-0.213-0.546-0.466-1.369-0.533-2.88-0.076-1.636-0.091-2.126-0.091-6.27 0-4.142 0.014-4.631 0.089-6.267 0.071-1.513 0.322-2.334 0.533-2.88 0.283-0.725 0.619-1.243 1.163-1.785 0.488-0.502 1.084-0.898 1.75-1.15l0.033-0.011c0.548-0.213 1.369-0.466 2.88-0.535 1.433-0.066 1.988-0.085 4.878-0.089v0.005zM24.283 5.858c-1.028 0-1.862 0.834-1.862 1.862s0.834 1.862 1.862 1.862v0c1.029 0 1.863-0.834 1.863-1.863s-0.834-1.863-1.863-1.863v0zM16 8.032c-4.4 0.001-7.967 3.568-7.967 7.968s3.567 7.968 7.968 7.968c0 0 0.001 0 0.001 0h-0c4.401 0 7.968-3.567 7.968-7.968s-3.567-7.968-7.968-7.968v0zM16 10.828c0.040-0.001 0.088-0.002 0.136-0.002 2.857 0 5.173 2.316 5.173 5.173s-2.316 5.173-5.173 5.173c-0.048 0-0.095-0.001-0.143-0.002l0.007 0c-2.798-0.076-5.038-2.362-5.038-5.172s2.239-5.096 5.031-5.171l0.007-0z"></path>
</symbol>
</defs>
</svg>
